<?xml version="1.0" encoding="UTF-8" standalone="no"?>
<svg width="48px" height="48px" viewBox="0 0 48 48" version="1.1" xmlns="http://www.w3.org/2000/svg" xmlns:xlink="http://www.w3.org/1999/xlink">
    <!-- Generator: Sketch 49 (51002) - http://www.bohemiancoding.com/sketch -->
    <title>Path 5</title>
    <desc>Created with Sketch.</desc>
    <defs></defs>
    <g id="Page-1" stroke="none" stroke-width="1" fill="none" fill-rule="evenodd">
        <path d="M0,39 L20.3784062,39 C22.6982121,39 24.8205559,38.6564015 26.7455013,37.9691943 C28.6704466,37.2819871 30.3115613,36.2970048 31.6688946,35.014218 C33.0262279,33.7314312 34.0873998,32.219598 34.8524422,30.478673 C35.6174845,28.737748 36,26.7906901 36,24.6374408 L36,24.5 C36,22.3925645 35.6174845,20.4455066 34.8524422,18.6587678 C34.0873998,16.872029 33.0262279,15.3372892 31.6688946,14.0545024 C30.3115613,12.7717155 28.6704466,11.77528 26.7455013,11.0651659 C24.8205559,10.3550517 22.6982121,10 20.3784062,10 L0,10 L0,0 L20.3162791,0 C24.3845165,0 28.1178125,0.605708229 31.5162791,1.81714286 C34.9147457,3.02857749 37.8418482,4.70856069 40.2976744,6.85714286 C42.7535007,9.00572503 44.6511561,11.5314141 45.9906977,14.4342857 C47.3302393,17.3371574 48,20.4799831 48,24 C48,27.3828741 47.3302393,30.5371282 45.9906977,33.4628571 C44.6511561,36.3885861 42.7535007,38.9257035 40.2976744,41.0742857 C37.8418482,43.2228679 34.9147457,44.9142795 31.5162791,46.1485714 C28.1178125,47.3828633 24.3845165,48 20.3162791,48 L0,48 L0,39 Z" id="Path-5" fill="#FF6600" transform="translate(24.000000, 24.000000) scale(1, -1) translate(-24.000000, -24.000000) "></path>
    </g>
</svg>