<svg width="40" height="42" viewBox="0 0 40 42" fill="none" xmlns="http://www.w3.org/2000/svg">
<path fill-rule="evenodd" clip-rule="evenodd" d="M33.5814 35.2381C35.6279 33.3979 37.2093 31.2347 38.3256 28.7484C39.4419 26.2622 40 23.5704 40 20.5556C40 17.6582 39.4419 14.9566 38.3256 12.4508C37.2093 9.94497 35.6279 7.77197 33.5814 5.93175C31.5349 4.09153 29.0956 2.64287 26.2636 1.58572C23.4315 0.528572 20.3204 7.62939e-06 16.9302 7.62939e-06H0V7.77781H18.2399C20.3163 7.77781 22.2159 8.08059 23.9389 8.68618C25.6618 9.29176 27.1307 10.1598 28.3456 11.2902C29.5605 12.4206 30.5103 13.7529 31.1951 15.287C31.8798 16.8212 32.2222 18.537 32.2222 20.4345V20.5556C32.2222 22.4127 31.8798 24.1285 31.1951 25.703C30.5103 27.2775 29.5605 28.63 28.3456 29.7604C27.1307 30.8909 25.6618 31.7689 23.9389 32.3947C22.2159 33.0205 20.3163 33.3334 18.2399 33.3334H0V41.1111H16.9302C20.3204 41.1111 23.4315 40.5923 26.2636 39.5548C29.0956 38.5172 31.5349 37.0783 33.5814 35.2381Z" fill="url(#paint0_linear)"/>
<defs>
<linearGradient id="paint0_linear" x1="40" y1="41" x2="3.28715e-06" y2="-3.47402e-07" gradientUnits="userSpaceOnUse">
<stop stop-color="#79F4F6"/>
<stop offset="1" stop-color="#7FED76"/>
</linearGradient>
</defs>
</svg>
