<svg width="171" height="22" viewBox="0 0 171 22" fill="none" xmlns="http://www.w3.org/2000/svg">
<path d="M6.82955 21C13.0341 21 16.6236 17.152 16.6236 10.7884C16.6236 4.45454 13.0341 0.636363 7.03835 0.636363H0.237216V21H6.82955ZM3.30966 18.3153V3.32102H6.84943C11.304 3.32102 13.6009 5.98579 13.6009 10.7884C13.6009 15.6108 11.304 18.3153 6.66051 18.3153H3.30966ZM19.6042 21H32.4906V18.3551H22.6767V12.1207H31.7051V9.4858H22.6767V3.28125H32.3713V0.636363H19.6042V21ZM46.7419 5.98579H49.7049C49.6155 2.72443 46.7319 0.357954 42.5956 0.357954C38.5089 0.357954 35.3768 2.6946 35.3768 6.20454C35.3768 9.03835 37.4052 10.6989 40.6765 11.5838L43.0828 12.2401C45.2603 12.8168 46.9407 13.5327 46.9407 15.3423C46.9407 17.331 45.0416 18.6435 42.4265 18.6435C40.0601 18.6435 38.0913 17.5895 37.9123 15.3722H34.8299C35.0288 19.0611 37.8825 21.3381 42.4464 21.3381C47.2291 21.3381 49.9834 18.8224 49.9834 15.3722C49.9834 11.7031 46.712 10.2812 44.1268 9.64489L42.1382 9.12784C40.5473 8.72017 38.4294 7.97443 38.4393 6.02557C38.4393 4.29545 40.0203 3.01278 42.526 3.01278C44.8626 3.01278 46.5231 4.10653 46.7419 5.98579ZM55.8873 0.636363H52.8149V21H55.8873V0.636363ZM73.303 7.0696H76.455C75.7689 3.10227 72.3783 0.357954 67.9834 0.357954C62.7135 0.357954 58.8655 4.32528 58.8655 10.8281C58.8655 17.2713 62.6041 21.2784 68.1226 21.2784C73.0644 21.2784 76.5942 18.0369 76.5942 12.8963V10.5795H68.5899V13.1151H73.6212C73.5516 16.3963 71.384 18.4744 68.1226 18.4744C64.5331 18.4744 61.9181 15.7599 61.9181 10.8082C61.9181 5.87642 64.553 3.16193 68.0033 3.16193C70.7078 3.16193 72.5374 4.65341 73.303 7.0696ZM96.0905 0.636363H93.0479V15.5909H92.859L82.4982 0.636363H79.6544V21H82.7268V6.06534H82.9158L93.2666 21H96.0905V0.636363ZM101.453 21L103.322 15.6108H111.276L113.136 21H116.397L109.069 0.636363H105.519L98.1912 21H101.453ZM104.217 13.0256L107.22 4.33523H107.379L110.382 13.0256H104.217ZM118.498 21H126.303C131.036 21 133.174 18.6435 133.174 15.5213C133.174 12.3693 130.967 10.5895 128.948 10.4801V10.2812C130.817 9.80398 132.379 8.53125 132.379 5.98579C132.379 2.97301 130.29 0.636363 125.955 0.636363H118.498V21ZM121.57 18.3651V11.8423H126.114C128.58 11.8423 130.121 13.4332 130.121 15.3722C130.121 17.0824 128.958 18.3651 126.005 18.3651H121.57ZM121.57 9.44602V3.25142H125.766C128.202 3.25142 129.366 4.53409 129.366 6.22443C129.366 8.19318 127.755 9.44602 125.687 9.44602H121.57ZM139.051 0.636363H135.978V21H139.051V0.636363ZM142.685 21H154.985V18.3551H145.757V0.636363H142.685V21ZM157.65 21H170.536V18.3551H160.722V12.1207H169.751V9.4858H160.722V3.28125H170.417V0.636363H157.65V21Z" fill="white"/>
</svg>
